<svg width="201" height="104" viewBox="0 0 201 104" fill="none" xmlns="http://www.w3.org/2000/svg">
<path fill-rule="evenodd" clip-rule="evenodd" d="M201 13.168C199.775 13.7031 198.422 14 197 14C191.477 14 187 9.52283 187 4C187 2.57776 187.297 1.22498 187.832 0H9.16797C9.70312 1.22498 10 2.57776 10 4C10 9.52283 5.52295 14 0 14V18.05C1.14111 18.2816 2 19.2905 2 20.5C2 21.7095 1.14111 22.7184 0 22.95V25.05C1.14111 25.2816 2 26.2905 2 27.5C2 28.7095 1.14111 29.7184 0 29.95V32.05C1.14111 32.2816 2 33.2905 2 34.5C2 35.7095 1.14111 36.7184 0 36.95V39.05C1.14111 39.2816 2 40.2905 2 41.5C2 42.7095 1.14111 43.7184 0 43.95V46.05C1.14111 46.2816 2 47.2905 2 48.5C2 49.7095 1.14111 50.7184 0 50.95V53.05C1.14111 53.2816 2 54.2905 2 55.5C2 56.7095 1.14111 57.7184 0 57.95V60.05C1.14111 60.2816 2 61.2905 2 62.5C2 63.7095 1.14111 64.7184 0 64.95V67.05C1.14111 67.2816 2 68.2905 2 69.5C2 70.7095 1.14111 71.7184 0 71.95V74.05C1.14111 74.2816 2 75.2905 2 76.5C2 77.7095 1.14111 78.7184 0 78.95V81.05C1.14111 81.2816 2 82.2905 2 83.5C2 84.7095 1.14111 85.7184 0 85.95V90.2C0.645996 90.0688 1.31494 90 2 90C7.52295 90 12 94.4772 12 100C12 101.422 11.7031 102.775 11.168 104H187.832C187.297 102.775 187 101.422 187 100C187 94.4772 191.477 90 197 90C198.422 90 199.775 90.2969 201 90.8321V85.95C199.859 85.7184 199 84.7095 199 83.5C199 82.2905 199.859 81.2816 201 81.05V78.95C199.859 78.7184 199 77.7095 199 76.5C199 75.2905 199.859 74.2816 201 74.05V71.95C199.859 71.7184 199 70.7095 199 69.5C199 68.2905 199.859 67.2816 201 67.05V64.95C199.859 64.7184 199 63.7095 199 62.5C199 61.2905 199.859 60.2816 201 60.05V57.95C199.859 57.7184 199 56.7095 199 55.5C199 54.2905 199.859 53.2816 201 53.05V50.95C199.859 50.7184 199 49.7095 199 48.5C199 47.2905 199.859 46.2816 201 46.05V43.95C199.859 43.7184 199 42.7095 199 41.5C199 40.2905 199.859 39.2816 201 39.05V36.95C199.859 36.7184 199 35.7095 199 34.5C199 33.2905 199.859 32.2816 201 32.05V29.95C199.859 29.7184 199 28.7095 199 27.5C199 26.2905 199.859 25.2816 201 25.05V22.95C199.859 22.7184 199 21.7095 199 20.5C199 19.2905 199.859 18.2816 201 18.05V13.168Z" fill="black"/>
<line x1="41.5" x2="41.5" y2="104" stroke="white" stroke-dasharray="2 2"/>
<path d="M27 95H15.2V94.4H27V95ZM27 93.8H15.2V92.6H27V93.8ZM27 90.8H15.2V90.2H27V90.8ZM28.74 93.16V92.08C28.74 91.6933 28.7933 91.3933 28.9 91.18C29.0067 90.9533 29.1667 90.76 29.38 90.6C29.78 90.2933 30.3467 90.14 31.08 90.14C31.84 90.1667 32.4133 90.34 32.8 90.66C33.2 90.98 33.3933 91.48 33.38 92.16V93.16H28.74ZM32.98 92.2C32.98 91.1733 32.36 90.66 31.12 90.66C30.4933 90.66 30.0133 90.7733 29.68 91C29.3467 91.24 29.18 91.6133 29.18 92.12V92.66H32.98V92.2ZM27 88.3984H15.2V87.7984H27V88.3984ZM27 85.9984H15.2V83.5984H27V85.9984ZM27 82.9984H15.2V82.3984H27V82.9984ZM33.44 85.0984C33.44 85.4051 33.3667 85.6784 33.22 85.9184C33.0733 86.1451 32.8667 86.3251 32.6 86.4584C32.3333 86.6051 32.0267 86.6784 31.68 86.6784C31.3333 86.6784 31.0267 86.6051 30.76 86.4584C30.4933 86.3251 30.2867 86.1451 30.14 85.9184C29.98 85.6784 29.9 85.4051 29.9 85.0984C29.9 84.7918 29.98 84.5251 30.14 84.2984C30.2867 84.0584 30.4933 83.8718 30.76 83.7384C31.0267 83.6051 31.3333 83.5384 31.68 83.5384C32.0267 83.5384 32.3333 83.6051 32.6 83.7384C32.8667 83.8718 33.0733 84.0584 33.22 84.2984C33.3667 84.5251 33.44 84.7918 33.44 85.0984ZM33 85.0984C33 84.9118 32.94 84.7384 32.82 84.5784C32.7133 84.4318 32.56 84.3118 32.36 84.2184C32.1467 84.1384 31.9133 84.0984 31.66 84.0984C31.2733 84.0984 30.96 84.1918 30.72 84.3784C30.48 84.5651 30.36 84.8051 30.36 85.0984C30.36 85.3918 30.48 85.6318 30.72 85.8184C30.96 86.0051 31.2733 86.0984 31.66 86.0984C31.9133 86.0984 32.1467 86.0584 32.36 85.9784C32.56 85.8851 32.7133 85.7651 32.82 85.6184C32.94 85.4718 33 85.2984 33 85.0984ZM27 81.7969H15.2V81.1969H27V81.7969ZM27 79.9969H15.2V77.5969H27V79.9969ZM27 76.3969H15.2V75.7969H27V76.3969ZM33.46 78.7169C33.46 79.0769 33.3267 79.3635 33.06 79.5769C32.7933 79.7902 32.4 79.8902 31.88 79.8769H29.98V79.3569H31.88C32.28 79.3569 32.5733 79.2835 32.76 79.1369C32.9467 79.0035 33.04 78.8169 33.04 78.5769C33.04 78.3235 32.9333 78.1102 32.72 77.9369C32.52 77.7502 32.2333 77.6569 31.86 77.6569H29.98V77.1369H32.86C32.98 77.1369 33.0733 77.1369 33.14 77.1369C33.22 77.1235 33.3 77.1035 33.38 77.0769V77.5769C33.3 77.6169 33.22 77.6369 33.14 77.6369C33.0733 77.6502 32.98 77.6569 32.86 77.6569C33.0467 77.7635 33.1933 77.9102 33.3 78.0969C33.4067 78.2835 33.46 78.4902 33.46 78.7169ZM27 75.1953H15.2V74.5953H27V75.1953ZM27 73.3953H15.2V72.7953H27V73.3953ZM27 70.3953H15.2V69.1953H27V70.3953ZM33.46 71.7753C33.46 71.9753 33.4133 72.162 33.32 72.3353C33.2267 72.5086 33.1 72.6553 32.94 72.7753L33.38 72.9753V73.3153H28.44V72.6953H28.48C28.52 72.722 28.5533 72.742 28.58 72.7553C28.62 72.7686 28.68 72.7753 28.76 72.7753H30.5C30.3133 72.6553 30.1667 72.502 30.06 72.3153C29.9533 72.1286 29.9 71.942 29.9 71.7553C29.9 71.3286 30.0467 70.9886 30.34 70.7353C30.6467 70.482 31.08 70.3553 31.64 70.3553C32.0267 70.3553 32.36 70.422 32.64 70.5553C32.92 70.6886 33.1267 70.8686 33.26 71.0953C33.3933 71.3086 33.46 71.5353 33.46 71.7753ZM32.98 71.8353C32.98 71.5686 32.8733 71.3486 32.66 71.1753C32.46 71.002 32.1333 70.9153 31.68 70.9153C31.24 70.9153 30.9133 70.9953 30.7 71.1553C30.4733 71.3286 30.36 71.5553 30.36 71.8353C30.36 72.1153 30.4867 72.342 30.74 72.5153C30.98 72.6886 31.3 72.7753 31.7 72.7753C32.5533 72.7753 32.98 72.462 32.98 71.8353ZM27 68.5938H15.2V67.3937H27V68.5938ZM27 66.1937H15.2V65.5937H27V66.1937ZM27 64.9937H15.2V64.3937H27V64.9937ZM32.94 66.5737V65.5537H28.86V66.5137H28.44V65.0137H32.94V64.0137H33.38V66.5737H32.94ZM27 61.9922H15.2V61.3922H27V61.9922ZM27 60.7922H15.2V59.5922H27V60.7922ZM27 58.3922H15.2V57.7922H27V58.3922ZM33.46 58.5322C33.46 59.0389 33.3067 59.4389 33 59.7322C32.6933 60.0389 32.26 60.1922 31.7 60.1922C31.3267 60.1922 31 60.1189 30.72 59.9722C30.4533 59.8389 30.2533 59.6522 30.12 59.4122C29.9733 59.1855 29.9 58.9255 29.9 58.6322C29.9 58.2189 30.0333 57.8855 30.3 57.6322C30.58 57.3789 30.9867 57.2522 31.52 57.2522C31.5733 57.2522 31.6533 57.2522 31.76 57.2522V59.6722C32.1733 59.6589 32.4867 59.5455 32.7 59.3322C32.9133 59.1189 33.02 58.8455 33.02 58.5122C33.02 58.1522 32.8933 57.8589 32.64 57.6322L32.94 57.3322C33.2867 57.6255 33.46 58.0255 33.46 58.5322ZM31.34 57.7922C31.02 57.7922 30.7667 57.8722 30.58 58.0322C30.3933 58.1922 30.3 58.4055 30.3 58.6722C30.3 58.9122 30.3867 59.1255 30.56 59.3122C30.7333 59.4989 30.9933 59.6122 31.34 59.6522V57.7922ZM27 55.3906H15.2V54.1906H27V55.3906ZM27 53.5906H15.2V52.3906H27V53.5906ZM27 51.1906H15.2V49.9906H27V51.1906ZM27 48.7891H15.2V48.1891H27V48.7891ZM27 46.9891H15.2V44.5891H27V46.9891ZM27 43.9891H15.2V43.3891H27V43.9891ZM33.06 44.0491C33.3133 44.3691 33.44 44.7291 33.44 45.1291C33.44 45.5024 33.3267 45.7691 33.1 45.9291C32.86 46.0891 32.4867 46.1691 31.98 46.1691C31.8867 46.1691 31.74 46.1624 31.54 46.1491L30.42 46.0691V46.8291H29.98V46.0491L29.08 45.9891L28.98 45.4091V45.3291H29.02C29.06 45.3557 29.1 45.3757 29.14 45.3891C29.18 45.4157 29.2333 45.4291 29.3 45.4291L29.98 45.5091V44.3891H30.42V45.5491L31.58 45.6091C31.78 45.6224 31.9067 45.6291 31.96 45.6291C32.36 45.6291 32.6333 45.5824 32.78 45.4891C32.9133 45.3957 32.98 45.2491 32.98 45.0491C32.98 44.9024 32.9533 44.7624 32.9 44.6291C32.8467 44.5091 32.76 44.3691 32.64 44.2091L33.06 44.0491ZM27 42.1875H15.2V41.5875H27V42.1875ZM27 39.1875H15.2V37.9875H27V39.1875ZM27 37.3875H15.2V36.7875H27V37.3875ZM32.94 40.0075V39.1275H30.42V39.9675H29.98V38.6075H32.94V37.8075H33.38V40.0075H32.94ZM29.26 38.8875C29.26 38.9942 29.2267 39.0875 29.16 39.1675C29.08 39.2342 28.9867 39.2675 28.88 39.2675C28.7733 39.2675 28.6867 39.2342 28.62 39.1675C28.54 39.1008 28.5 39.0075 28.5 38.8875C28.5 38.7942 28.54 38.7075 28.62 38.6275C28.7 38.5475 28.7867 38.5075 28.88 38.5075C28.9867 38.5075 29.08 38.5475 29.16 38.6275C29.2267 38.7075 29.26 38.7942 29.26 38.8875ZM27 35.5859H15.2V34.9859H27V35.5859ZM27 32.5859H15.2V31.9859H27V32.5859ZM27 31.3859H15.2V30.1859H27V31.3859ZM33.46 32.0259C33.46 32.3593 33.3867 32.6526 33.24 32.9059C33.08 33.1593 32.8667 33.3593 32.6 33.5059C32.3333 33.6526 32.0267 33.7259 31.68 33.7259C31.3467 33.7259 31.0467 33.6526 30.78 33.5059C30.5133 33.3593 30.3 33.1593 30.14 32.9059C29.9933 32.6526 29.92 32.3593 29.92 32.0259C29.92 31.7593 29.9733 31.5126 30.08 31.2859C30.1867 31.0726 30.34 30.8926 30.54 30.7459L30.88 31.0859L30.92 31.1259L30.88 31.1659C30.84 31.1659 30.8 31.1793 30.76 31.2059C30.7333 31.2193 30.6933 31.2526 30.64 31.3059C30.5467 31.4126 30.48 31.5259 30.44 31.6459C30.3867 31.7793 30.36 31.9259 30.36 32.0859C30.36 32.2859 30.4133 32.4659 30.52 32.6259C30.6267 32.7993 30.78 32.9326 30.98 33.0259C31.1667 33.1326 31.3867 33.1859 31.64 33.1859C31.8933 33.1859 32.1267 33.1326 32.34 33.0259C32.54 32.9193 32.6933 32.7793 32.8 32.6059C32.92 32.4193 32.98 32.2193 32.98 32.0059C32.98 31.6593 32.84 31.3593 32.56 31.1059L32.92 30.8059C33.28 31.1393 33.46 31.5459 33.46 32.0259ZM27 28.9844H15.2V27.7844H27V28.9844ZM27 25.3844H15.2V24.7844H27V25.3844ZM27 23.5844H15.2V22.9844H27V23.5844ZM31.68 26.0644L32.1 26.5044H33.38V27.0444H28.44V26.4444H28.48C28.52 26.471 28.5533 26.491 28.58 26.5044C28.62 26.5044 28.68 26.5044 28.76 26.5044H31.54L29.96 24.8044C29.9867 24.6844 30 24.551 30 24.4044V24.2244L31.36 25.6444L33.38 23.9844L33.4 24.6644L31.68 26.0644ZM27 22.3828H15.2V21.7828H27V22.3828ZM27 21.1828H15.2V19.9828H27V21.1828ZM27 18.7828H15.2V18.1828H27V18.7828ZM33.46 18.9228C33.46 19.4295 33.3067 19.8295 33 20.1228C32.6933 20.4295 32.26 20.5828 31.7 20.5828C31.3267 20.5828 31 20.5095 30.72 20.3628C30.4533 20.2295 30.2533 20.0428 30.12 19.8028C29.9733 19.5761 29.9 19.3161 29.9 19.0228C29.9 18.6095 30.0333 18.2761 30.3 18.0228C30.58 17.7695 30.9867 17.6428 31.52 17.6428C31.5733 17.6428 31.6533 17.6428 31.76 17.6428V20.0628C32.1733 20.0495 32.4867 19.9361 32.7 19.7228C32.9133 19.5095 33.02 19.2361 33.02 18.9028C33.02 18.5428 32.8933 18.2495 32.64 18.0228L32.94 17.7228C33.2867 18.0161 33.46 18.4161 33.46 18.9228ZM31.34 18.1828C31.02 18.1828 30.7667 18.2628 30.58 18.4228C30.3933 18.5828 30.3 18.7961 30.3 19.0628C30.3 19.3028 30.3867 19.5161 30.56 19.7028C30.7333 19.8895 30.9933 20.0028 31.34 20.0428V18.1828ZM27 15.7812H15.2V15.1812H27V15.7812ZM27 13.9812H15.2V11.5812H27V13.9812ZM27 10.9812H15.2V10.3812H27V10.9812ZM33.06 11.0412C33.3133 11.3612 33.44 11.7212 33.44 12.1212C33.44 12.4946 33.3267 12.7612 33.1 12.9212C32.86 13.0812 32.4867 13.1612 31.98 13.1612C31.8867 13.1612 31.74 13.1546 31.54 13.1413L30.42 13.0612V13.8212H29.98V13.0412L29.08 12.9812L28.98 12.4012V12.3212H29.02C29.06 12.3479 29.1 12.3679 29.14 12.3812C29.18 12.4079 29.2333 12.4212 29.3 12.4212L29.98 12.5012V11.3812H30.42V12.5412L31.58 12.6012C31.78 12.6146 31.9067 12.6212 31.96 12.6212C32.36 12.6212 32.6333 12.5746 32.78 12.4812C32.9133 12.3879 32.98 12.2412 32.98 12.0412C32.98 11.8946 32.9533 11.7546 32.9 11.6212C32.8467 11.5012 32.76 11.3612 32.64 11.2012L33.06 11.0412Z" fill="#946521"/>
<path d="M66.3156 18.1061C66.4311 18.282 66.5537 18.5312 66.6836 18.8537C66.8279 19.1762 66.9145 19.5061 66.9433 19.8432L64.0211 21.2945C63.4872 21.0453 63.0182 20.7447 62.6142 20.3929C62.2101 20.0411 61.907 19.6746 61.705 19.2935L62.1596 12.0813L62.3328 5.72658L60.6444 6.16635C60.5434 5.99044 60.4207 5.74857 60.2764 5.44073C60.1321 5.11823 60.0455 4.7884 60.0166 4.45124L62.9388 3C63.0831 3.01466 63.3068 3.08795 63.6099 3.21989C63.9273 3.35182 64.2376 3.50574 64.5406 3.68164C64.8437 3.85755 65.0601 4.01147 65.19 4.1434L64.2592 12.2792L64.4324 18.6119L66.3156 18.1061Z" fill="#946521"/>
<path d="M68.1513 18.1061C68.2812 18.282 68.4111 18.5312 68.5409 18.8537C68.6708 19.1762 68.7502 19.5061 68.779 19.8432L65.8568 21.2945C65.5105 21.1918 65.1353 21.0233 64.7312 20.7887C64.3416 20.5542 64.0458 20.3416 63.8437 20.1511L63.9303 18.5459C63.2088 19.3521 62.48 19.9971 61.7441 20.4809C61.0081 20.9646 60.366 21.2358 59.8176 21.2945C59.6011 21.1772 59.3342 20.972 59.0167 20.6788C58.7136 20.3709 58.425 20.0338 58.1508 19.6673C57.8911 19.2862 57.7179 18.927 57.6313 18.5899L58.0859 12.521C58.3024 12.0519 58.6126 11.5829 59.0167 11.1138C59.4207 10.63 59.8248 10.2416 60.2289 9.94838C61.2679 9.75781 62.278 9.64787 63.2593 9.61855C64.2406 9.57457 65.3229 9.74315 66.5062 10.1243C66.6649 10.3002 66.8092 10.5127 66.9391 10.762C67.069 11.0112 67.1772 11.253 67.2638 11.4876C67.3648 11.7075 67.4226 11.876 67.437 11.9933C67.2927 12.6383 67.0979 13.2686 66.8525 13.8843C66.6216 14.5 66.3402 15.0864 66.0083 15.6434L66.2681 18.5899L68.1513 18.1061ZM60.6185 18.6119C61.138 18.4213 61.708 18.0108 62.3285 17.3805C62.9635 16.7502 63.5407 16.0026 64.0602 15.1377L64.1468 11.8174C63.5551 11.8027 62.9851 11.8321 62.4368 11.9054C61.8884 11.9786 61.3689 12.0886 60.8782 12.2352C60.6185 12.9681 60.4309 13.7157 60.3154 14.478C60.2144 15.2256 60.1639 15.9219 60.1639 16.5669C60.1784 17.1973 60.2289 17.703 60.3154 18.0841C60.402 18.4653 60.503 18.6412 60.6185 18.6119Z" fill="#946521"/>
<path d="M62.396 9.59656C62.6558 9.71383 62.9299 9.9044 63.2185 10.1683C63.5072 10.4321 63.7741 10.7473 64.0195 11.1138C64.2648 11.4656 64.4379 11.8321 64.539 12.2132L64.106 18.37C63.8896 18.8391 63.5793 19.3155 63.1753 19.7992C62.7712 20.2683 62.3671 20.6495 61.9631 20.9426C61.3281 21.0599 60.7653 21.1479 60.2747 21.2065C59.784 21.2651 59.3151 21.2871 58.8677 21.2725C58.4204 21.2725 57.9297 21.2358 57.3958 21.1625V25.4723L56.7464 26C56.6021 25.9853 56.3856 25.934 56.097 25.8461C55.8228 25.7581 55.5486 25.6409 55.2745 25.4943C55.0147 25.3623 54.8199 25.2377 54.69 25.1205L55.426 15.3136L55.2312 12.3011L53.3913 12.7849C53.2614 12.609 53.1315 12.3598 53.0016 12.0373C52.8718 11.7148 52.7924 11.385 52.7635 11.0478L55.6857 9.59656C55.83 9.61122 56.0321 9.69184 56.2918 9.83843C56.566 9.98502 56.833 10.1463 57.0927 10.3222C57.3669 10.4834 57.5689 10.6227 57.6988 10.74L57.5906 12.9168C58.1678 12.2425 58.7523 11.6562 59.3439 11.1577C59.9356 10.6593 60.4984 10.2782 61.0323 10.0143C61.5662 9.73582 62.0208 9.59656 62.396 9.59656ZM61.4219 18.6338C61.6528 17.7396 61.8116 16.8674 61.8981 16.0172C61.9847 15.167 62.0136 14.4047 61.9847 13.7304C61.9703 13.0414 61.9198 12.499 61.8332 12.1033C61.4147 12.2352 60.9385 12.543 60.4046 13.0268C59.8706 13.4959 59.3367 14.0749 58.8028 14.7639C58.2833 15.4528 57.8215 16.1858 57.4174 16.9627V19.0296C58.1101 19.1029 58.7955 19.1029 59.4738 19.0296C60.152 18.9563 60.8014 18.8244 61.4219 18.6338Z" fill="#946521"/>
<path d="M63.3557 9.59656C63.6876 9.77247 64.0051 10.1023 64.3081 10.586C64.6256 11.0551 64.8493 11.5462 64.9791 12.0593L64.7843 14.8078C64.539 14.9837 64.2287 15.1157 63.8536 15.2036C63.4784 15.2769 63.132 15.3209 62.8145 15.3356L62.295 14.8298C62.3672 14.2874 62.4105 13.811 62.4249 13.4006C62.4538 12.9755 62.4393 12.6017 62.3816 12.2792C61.9343 12.6163 61.5158 13.1074 61.1262 13.7524C60.751 14.3827 60.4046 15.0864 60.0871 15.8633L60.1521 20.9426C59.8346 21.0306 59.4666 21.0746 59.0481 21.0746C58.6297 21.0746 58.2545 21.0306 57.9225 20.9426C57.4752 20.4589 57.1072 19.9092 56.8186 19.2935C56.9196 18.8098 57.0639 18.2967 57.2515 17.7543C57.4391 17.1973 57.6556 16.6475 57.9009 16.1052V15.3136L57.6412 12.2792L55.7579 12.7629C55.6569 12.587 55.5343 12.3451 55.39 12.0373C55.2457 11.7148 55.1591 11.385 55.1302 11.0478L58.0524 9.59656C58.1967 9.61122 58.3988 9.69184 58.6585 9.83843C58.9327 9.98502 59.1997 10.1463 59.4594 10.3222C59.7336 10.4834 59.9356 10.6227 60.0655 10.74L59.9789 12.4771C60.5706 11.6415 61.1694 10.9525 61.7755 10.4101C62.3816 9.86775 62.9083 9.59656 63.3557 9.59656Z" fill="#946521"/>
<path d="M59.4912 8.34321C58.7408 7.93276 58.0626 7.39038 57.4565 6.71606C57.4709 6.48152 57.5647 6.21765 57.7379 5.92447C57.9255 5.61663 58.1419 5.33811 58.3873 5.08891C58.647 4.82505 58.8923 4.6638 59.1232 4.60516C59.3541 4.60516 59.6139 4.70045 59.9025 4.89101C60.1911 5.06692 60.4581 5.28681 60.7034 5.55067C60.9487 5.79987 61.093 6.04175 61.1363 6.27629C61.1219 6.52549 61.0209 6.80402 60.8333 7.11186C60.6457 7.40504 60.4292 7.6689 60.1839 7.90344C59.9386 8.12333 59.7077 8.26992 59.4912 8.34321ZM61.8723 17.9962C61.9733 18.1721 62.0959 18.4433 62.2402 18.8098C62.3846 19.1616 62.4711 19.5061 62.5 19.8432L59.5778 21.2945C58.4811 20.7814 57.7307 20.1217 57.3266 19.3155L57.7812 12.4111L56.201 12.8948C56.1 12.7189 55.9773 12.4551 55.833 12.1033C55.6887 11.7368 55.6021 11.385 55.5733 11.0478L58.4955 9.59656C58.6398 9.61122 58.849 9.69184 59.1232 9.83843C59.3974 9.98502 59.6644 10.1463 59.9241 10.3222C60.1983 10.4981 60.4076 10.6447 60.5519 10.762L59.9458 15.5994V18.5899L61.8723 17.9962Z" fill="#946521"/>
<path d="M70.1393 18.1061C70.2692 18.282 70.3991 18.5312 70.529 18.8537C70.6588 19.1762 70.7382 19.5061 70.7671 19.8432L67.8449 21.2945C67.4697 21.1039 67.0728 20.8547 66.6543 20.5468C66.2359 20.239 65.9039 19.9018 65.6586 19.5354C65.9184 18.6119 66.0915 17.681 66.1781 16.7428C66.2647 15.8047 66.2864 14.9324 66.2431 14.1262C66.2142 13.3053 66.1348 12.631 66.005 12.1033C65.5143 12.3085 64.9948 12.7263 64.4464 13.3566C63.8981 13.9869 63.393 14.7345 62.9312 15.5994L62.8014 20.9426C62.4839 21.0306 62.1159 21.0746 61.6974 21.0746C61.2789 21.0746 60.9037 21.0306 60.5718 20.9426C60.1245 20.4589 59.7565 19.9092 59.4679 19.2935C59.6843 18.1941 60.009 17.1606 60.4419 16.1931C60.4997 15.3722 60.5069 14.6026 60.4636 13.8843C60.4203 13.166 60.3409 12.5723 60.2255 12.1033C59.6483 12.3231 59.071 12.7702 58.4938 13.4446C57.9166 14.1042 57.3971 14.8738 56.9353 15.7533L56.8054 20.9426C56.4879 21.0306 56.12 21.0746 55.7015 21.0746C55.283 21.0746 54.9078 21.0306 54.5759 20.9426C54.1285 20.4589 53.7605 19.9092 53.4719 19.2935C53.6018 18.6045 53.775 17.9449 53.9914 17.3145C54.2223 16.6842 54.4821 16.0758 54.7707 15.4895V15.3136L54.5109 12.2792L52.6277 12.7629C52.5267 12.587 52.4041 12.3451 52.2598 12.0373C52.1154 11.7148 52.0289 11.385 52 11.0478L54.9222 9.59656C55.0665 9.61122 55.2685 9.69184 55.5283 9.83843C55.8025 9.98502 56.0694 10.1463 56.3292 10.3222C56.6034 10.4834 56.8054 10.6227 56.9353 10.74L56.8487 12.2792C57.5702 11.4436 58.2701 10.7913 58.9484 10.3222C59.641 9.83843 60.211 9.59656 60.6584 9.59656C60.9037 9.71383 61.1635 9.94105 61.4377 10.2782C61.7263 10.6154 61.986 10.9892 62.2169 11.3996C62.4478 11.7954 62.5993 12.1692 62.6715 12.521C63.4363 11.6122 64.1939 10.9012 64.9443 10.3881C65.7091 9.86042 66.3513 9.59656 66.8708 9.59656C67.0873 9.71383 67.3254 9.91906 67.5851 10.2122C67.8449 10.5054 68.083 10.8352 68.2994 11.2017C68.5159 11.5535 68.6674 11.9054 68.754 12.2572L68.386 18.5679L70.1393 18.1061Z" fill="#946521"/>
<path d="M69.851 17.4904C69.952 17.6224 70.0603 17.8789 70.1757 18.26C70.3056 18.6412 70.3633 18.9783 70.3489 19.2715C69.7284 19.5354 69.079 19.7992 68.4007 20.0631C67.7225 20.3123 67.0875 20.5468 66.4959 20.7667C65.9187 20.9866 65.4424 21.1625 65.0673 21.2945C64.6199 21.1772 64.1509 20.9939 63.6603 20.7447C63.1696 20.4955 62.7223 20.2024 62.3182 19.8652C61.9141 19.5134 61.6255 19.1616 61.4524 18.8098L61.7554 12.0813C61.9574 11.7148 62.2388 11.3483 62.5996 10.9818C62.9748 10.6007 63.3428 10.2562 63.7036 9.94838C64.5405 9.75781 65.3559 9.64054 66.1495 9.59656C66.9577 9.55258 67.7297 9.58923 68.4657 9.7065C68.5955 9.7798 68.7687 9.94105 68.9852 10.1902C69.2161 10.4248 69.4397 10.6667 69.6562 10.9159C69.8727 11.1651 70.017 11.3483 70.0891 11.4656L70.0025 14.7419C69.6273 15.0204 69.1223 15.3136 68.4873 15.6214C67.8524 15.9293 67.1525 16.2298 66.3877 16.5229C65.6228 16.8015 64.858 17.0507 64.0932 17.2706C64.1076 17.5491 64.1293 17.8203 64.1581 18.0841C64.187 18.348 64.2231 18.6045 64.2663 18.8537L69.851 17.4904ZM67.6864 11.9713C67.1669 11.898 66.6618 11.876 66.1712 11.9054C65.6806 11.9347 65.1683 12.0226 64.6343 12.1692C64.49 12.6236 64.3746 13.1147 64.288 13.6424C64.2014 14.1702 64.1365 14.7052 64.0932 15.2476C64.7137 15.0424 65.3631 14.7785 66.0413 14.456C66.734 14.1189 67.3617 13.767 67.9245 13.4006L67.6864 11.9713Z" fill="#946521"/>
<path d="M69.3134 9.59656C69.6453 9.77247 69.9628 10.1023 70.2658 10.586C70.5833 11.0551 70.807 11.5462 70.9369 12.0593L70.7421 14.8078C70.4967 14.9837 70.1865 15.1157 69.8113 15.2036C69.4361 15.2769 69.0897 15.3209 68.7723 15.3356L68.2528 14.8298C68.3249 14.2874 68.3682 13.811 68.3826 13.4006C68.4115 12.9755 68.3971 12.6017 68.3393 12.2792C67.892 12.6163 67.4735 13.1074 67.0839 13.7524C66.7087 14.3827 66.3623 15.0864 66.0449 15.8633L66.1098 20.9426C65.7923 21.0306 65.4244 21.0746 65.0059 21.0746C64.5874 21.0746 64.2122 21.0306 63.8803 20.9426C63.4329 20.4589 63.0649 19.9092 62.7763 19.2935C62.8773 18.8098 63.0216 18.2967 63.2092 17.7543C63.3968 17.1973 63.6133 16.6475 63.8586 16.1052V15.3136L63.5989 12.2792L61.7157 12.7629C61.6147 12.587 61.492 12.3451 61.3477 12.0373C61.2034 11.7148 61.1168 11.385 61.0879 11.0478L64.0101 9.59656C64.1545 9.61122 64.3565 9.69184 64.6162 9.83843C64.8904 9.98502 65.1574 10.1463 65.4171 10.3222C65.6913 10.4834 65.8933 10.6227 66.0232 10.74L65.9366 12.4771C66.5283 11.6415 67.1272 10.9525 67.7333 10.4101C68.3393 9.86775 68.8661 9.59656 69.3134 9.59656Z" fill="#946521"/>
<path d="M72.3723 18.1061C72.5021 18.282 72.632 18.5312 72.7619 18.8537C72.8918 19.1762 72.9711 19.5061 73 19.8432L70.0778 21.2945C69.7315 21.1918 69.3563 21.0233 68.9522 20.7887C68.5626 20.5542 68.2667 20.3416 68.0647 20.1511L68.1513 18.5459C67.4298 19.3521 66.701 19.9971 65.965 20.4809C65.2291 20.9646 64.5869 21.2358 64.0386 21.2945C63.8221 21.1772 63.5551 20.972 63.2377 20.6788C62.9346 20.3709 62.646 20.0338 62.3718 19.6673C62.1121 19.2862 61.9389 18.927 61.8523 18.5899L62.3069 12.521C62.5233 12.0519 62.8336 11.5829 63.2377 11.1138C63.6417 10.63 64.0458 10.2416 64.4498 9.94838C65.4888 9.75781 66.499 9.64787 67.4803 9.61855C68.4616 9.57457 69.5439 9.74315 70.7272 10.1243C70.8859 10.3002 71.0302 10.5127 71.1601 10.762C71.29 11.0112 71.3982 11.253 71.4848 11.4876C71.5858 11.7075 71.6435 11.876 71.6579 11.9933C71.5136 12.6383 71.3188 13.2686 71.0735 13.8843C70.8426 14.5 70.5612 15.0864 70.2293 15.6434L70.4891 18.5899L72.3723 18.1061ZM64.8395 18.6119C65.359 18.4213 65.929 18.0108 66.5495 17.3805C67.1844 16.7502 67.7617 16.0026 68.2812 15.1377L68.3678 11.8174C67.7761 11.8027 67.2061 11.8321 66.6577 11.9054C66.1094 11.9786 65.5899 12.0886 65.0992 12.2352C64.8395 12.9681 64.6519 13.7157 64.5364 14.478C64.4354 15.2256 64.3849 15.9219 64.3849 16.5669C64.3993 17.1973 64.4498 17.703 64.5364 18.0841C64.623 18.4653 64.724 18.6412 64.8395 18.6119Z" fill="#946521"/>
<path d="M58.426 93.956L58.776 94.656C58.6453 94.936 58.4633 95.216 58.23 95.496C57.9967 95.7667 57.754 96.0093 57.502 96.224L53.918 95.874L53.344 96.224C52.952 96.084 52.6487 95.874 52.434 95.594L52.98 91.296L52.812 86.2L53.218 85.92C53.3207 85.9387 53.4607 85.99 53.638 86.074C53.8247 86.158 54.0067 86.2513 54.184 86.354C54.3613 86.4567 54.492 86.5547 54.576 86.648L54.422 91.478V94.516L58.426 93.956ZM66.1179 94.194C66.2019 94.306 66.2859 94.4647 66.3699 94.67C66.4539 94.8753 66.5052 95.0853 66.5239 95.3L64.6339 96.224C64.4099 96.1587 64.1672 96.0513 63.9059 95.902C63.6539 95.7527 63.4626 95.6173 63.3319 95.496L63.3879 94.474C62.9212 94.9873 62.4499 95.398 61.9739 95.706C61.4979 96.014 61.0826 96.1867 60.7279 96.224C60.5879 96.1493 60.4152 96.0187 60.2099 95.832C60.0139 95.636 59.8272 95.4213 59.6499 95.188C59.4819 94.9453 59.3699 94.7167 59.3139 94.502L59.6079 90.638C59.7479 90.3393 59.9486 90.0407 60.2099 89.742C60.4712 89.434 60.7326 89.1867 60.9939 89C61.6659 88.8787 62.3192 88.8087 62.9539 88.79C63.5886 88.762 64.2886 88.8693 65.0539 89.112C65.1566 89.224 65.2499 89.3593 65.3339 89.518C65.4179 89.6767 65.4879 89.8307 65.5439 89.98C65.6092 90.12 65.6466 90.2273 65.6559 90.302C65.5626 90.7127 65.4366 91.114 65.2779 91.506C65.1286 91.898 64.9466 92.2713 64.7319 92.626L64.8999 94.502L66.1179 94.194ZM61.2459 94.516C61.5819 94.3947 61.9506 94.1333 62.3519 93.732C62.7626 93.3307 63.1359 92.8547 63.4719 92.304L63.5279 90.19C63.1452 90.1807 62.7766 90.1993 62.4219 90.246C62.0672 90.2927 61.7312 90.3627 61.4139 90.456C61.2459 90.9227 61.1246 91.3987 61.0499 91.884C60.9846 92.36 60.9519 92.8033 60.9519 93.214C60.9612 93.6153 60.9939 93.9373 61.0499 94.18C61.1059 94.4227 61.1712 94.5347 61.2459 94.516Z" fill="white"/>
<path d="M75.0795 85.99C75.3315 86.13 75.5649 86.3073 75.7795 86.522C76.0035 86.7367 76.1995 86.9513 76.3675 87.166C76.5355 87.3807 76.6615 87.5673 76.7455 87.726L76.5215 90.806L75.0235 92.43L71.7335 92.5L71.7615 96.028L70.9775 96.224C70.7349 96.1027 70.4875 95.9393 70.2355 95.734C69.9835 95.5193 69.7782 95.2627 69.6195 94.964L70.2775 91.296L70.1095 86.2L70.5155 85.92C70.6462 85.9387 70.8375 86.0087 71.0895 86.13C71.3415 86.2513 71.5515 86.3773 71.7195 86.508C72.0835 86.3213 72.4662 86.1813 72.8675 86.088C73.2782 85.9947 73.6749 85.9387 74.0575 85.92C74.4402 85.9013 74.7809 85.9247 75.0795 85.99ZM74.8975 87.544C74.4682 87.4693 73.9689 87.4693 73.3995 87.544C72.8395 87.6093 72.3169 87.7493 71.8315 87.964L71.7335 91.24L74.8555 90.54C74.9209 90.0267 74.9582 89.4993 74.9675 88.958C74.9769 88.4167 74.9535 87.9453 74.8975 87.544ZM82.1859 88.776C82.4005 88.888 82.6059 89.098 82.8019 89.406C83.0072 89.7047 83.1519 90.0173 83.2359 90.344L83.1099 92.094C82.9512 92.206 82.7505 92.29 82.5079 92.346C82.2652 92.3927 82.0412 92.4207 81.8359 92.43L81.4999 92.108C81.5465 91.7627 81.5745 91.4593 81.5839 91.198C81.6025 90.9273 81.5932 90.6893 81.5559 90.484C81.2665 90.6987 80.9959 91.0113 80.7439 91.422C80.5012 91.8233 80.2772 92.2713 80.0719 92.766L80.1139 96C79.9085 96.056 79.6705 96.084 79.3999 96.084C79.1292 96.084 78.8865 96.056 78.6719 96C78.3825 95.692 78.1445 95.342 77.9579 94.95C78.0232 94.642 78.1165 94.3153 78.2379 93.97C78.3592 93.6153 78.4992 93.2653 78.6579 92.92V92.416L78.4899 90.484L77.2719 90.792C77.2065 90.68 77.1272 90.526 77.0339 90.33C76.9405 90.1247 76.8845 89.9147 76.8659 89.7L78.7559 88.776C78.8492 88.7853 78.9799 88.8367 79.1479 88.93C79.3252 89.0233 79.4979 89.126 79.6659 89.238C79.8432 89.3407 79.9739 89.4293 80.0579 89.504L80.0019 90.61C80.3845 90.078 80.7719 89.6393 81.1639 89.294C81.5559 88.9487 81.8965 88.776 82.1859 88.776ZM86.1264 87.978C85.6411 87.7167 85.2024 87.3713 84.8104 86.942C84.8198 86.7927 84.8804 86.6247 84.9924 86.438C85.1138 86.242 85.2538 86.0647 85.4124 85.906C85.5804 85.738 85.7391 85.6353 85.8884 85.598C86.0378 85.598 86.2058 85.6587 86.3924 85.78C86.5791 85.892 86.7518 86.032 86.9104 86.2C87.0691 86.3587 87.1624 86.5127 87.1904 86.662C87.1811 86.8207 87.1158 86.998 86.9944 87.194C86.8731 87.3807 86.7331 87.5487 86.5744 87.698C86.4158 87.838 86.2664 87.9313 86.1264 87.978ZM87.6664 94.124C87.7318 94.236 87.8111 94.4087 87.9044 94.642C87.9978 94.866 88.0538 95.0853 88.0724 95.3L86.1824 96.224C85.4731 95.8973 84.9878 95.4773 84.7264 94.964L85.0204 90.568L83.9984 90.876C83.9331 90.764 83.8538 90.596 83.7604 90.372C83.6671 90.1387 83.6111 89.9147 83.5924 89.7L85.4824 88.776C85.5758 88.7853 85.7111 88.8367 85.8884 88.93C86.0658 89.0233 86.2384 89.126 86.4064 89.238C86.5838 89.35 86.7191 89.4433 86.8124 89.518L86.4204 92.598V94.502L87.6664 94.124ZM99.4533 94.194C99.5373 94.306 99.6213 94.4647 99.7053 94.67C99.7893 94.8753 99.8407 95.0853 99.8593 95.3L97.9693 96.224C97.7267 96.1027 97.47 95.944 97.1993 95.748C96.9287 95.552 96.714 95.3373 96.5553 95.104C96.7233 94.516 96.8353 93.9233 96.8913 93.326C96.9473 92.7287 96.9613 92.1733 96.9333 91.66C96.9147 91.1373 96.8633 90.708 96.7793 90.372C96.462 90.5027 96.126 90.7687 95.7713 91.17C95.4167 91.5713 95.09 92.0473 94.7913 92.598L94.7073 96C94.502 96.056 94.264 96.084 93.9933 96.084C93.7227 96.084 93.48 96.056 93.2653 96C92.976 95.692 92.738 95.342 92.5513 94.95C92.6913 94.25 92.9013 93.592 93.1813 92.976C93.2187 92.4533 93.2233 91.9633 93.1953 91.506C93.1673 91.0487 93.116 90.6707 93.0413 90.372C92.668 90.512 92.2947 90.7967 91.9213 91.226C91.548 91.646 91.212 92.136 90.9133 92.696L90.8293 96C90.624 96.056 90.386 96.084 90.1153 96.084C89.8447 96.084 89.602 96.056 89.3873 96C89.098 95.692 88.86 95.342 88.6733 94.95C88.7573 94.5113 88.8693 94.0913 89.0093 93.69C89.1587 93.2887 89.3267 92.9013 89.5133 92.528V92.416L89.3453 90.484L88.1273 90.792C88.062 90.68 87.9827 90.526 87.8893 90.33C87.796 90.1247 87.74 89.9147 87.7213 89.7L89.6113 88.776C89.7047 88.7853 89.8353 88.8367 90.0033 88.93C90.1807 89.0233 90.3533 89.126 90.5213 89.238C90.6987 89.3407 90.8293 89.4293 90.9133 89.504L90.8573 90.484C91.324 89.952 91.7767 89.5367 92.2153 89.238C92.6633 88.93 93.032 88.776 93.3213 88.776C93.48 88.8507 93.648 88.9953 93.8253 89.21C94.012 89.4247 94.18 89.6627 94.3293 89.924C94.4787 90.176 94.5767 90.414 94.6233 90.638C95.118 90.0593 95.608 89.6067 96.0933 89.28C96.588 88.944 97.0033 88.776 97.3393 88.776C97.4793 88.8507 97.6333 88.9813 97.8013 89.168C97.9693 89.3547 98.1233 89.5647 98.2633 89.798C98.4033 90.022 98.5013 90.246 98.5573 90.47L98.3193 94.488L99.4533 94.194ZM105.707 93.802C105.772 93.886 105.842 94.0493 105.917 94.292C106.001 94.5347 106.038 94.7493 106.029 94.936C105.628 95.104 105.208 95.272 104.769 95.44C104.33 95.5987 103.92 95.748 103.537 95.888C103.164 96.028 102.856 96.14 102.613 96.224C102.324 96.1493 102.02 96.0327 101.703 95.874C101.386 95.7153 101.096 95.5287 100.835 95.314C100.574 95.09 100.387 94.866 100.275 94.642L100.471 90.358C100.602 90.1247 100.784 89.8913 101.017 89.658C101.26 89.4153 101.498 89.196 101.731 89C102.272 88.8787 102.8 88.804 103.313 88.776C103.836 88.748 104.335 88.7713 104.811 88.846C104.895 88.8927 105.007 88.9953 105.147 89.154C105.296 89.3033 105.441 89.4573 105.581 89.616C105.721 89.7747 105.814 89.8913 105.861 89.966L105.805 92.052C105.562 92.2293 105.236 92.416 104.825 92.612C104.414 92.808 103.962 92.9993 103.467 93.186C102.972 93.3633 102.478 93.522 101.983 93.662C101.992 93.8393 102.006 94.012 102.025 94.18C102.044 94.348 102.067 94.5113 102.095 94.67L105.707 93.802ZM104.307 90.288C103.971 90.2413 103.644 90.2273 103.327 90.246C103.01 90.2647 102.678 90.3207 102.333 90.414C102.24 90.7033 102.165 91.016 102.109 91.352C102.053 91.688 102.011 92.0287 101.983 92.374C102.384 92.2433 102.804 92.0753 103.243 91.87C103.691 91.6553 104.097 91.4313 104.461 91.198L104.307 90.288ZM111.799 88.776C112.014 88.888 112.219 89.098 112.415 89.406C112.62 89.7047 112.765 90.0173 112.849 90.344L112.723 92.094C112.564 92.206 112.364 92.29 112.121 92.346C111.878 92.3927 111.654 92.4207 111.449 92.43L111.113 92.108C111.16 91.7627 111.188 91.4593 111.197 91.198C111.216 90.9273 111.206 90.6893 111.169 90.484C110.88 90.6987 110.609 91.0113 110.357 91.422C110.114 91.8233 109.89 92.2713 109.685 92.766L109.727 96C109.522 96.056 109.284 96.084 109.013 96.084C108.742 96.084 108.5 96.056 108.285 96C107.996 95.692 107.758 95.342 107.571 94.95C107.636 94.642 107.73 94.3153 107.851 93.97C107.972 93.6153 108.112 93.2653 108.271 92.92V92.416L108.103 90.484L106.885 90.792C106.82 90.68 106.74 90.526 106.647 90.33C106.554 90.1247 106.498 89.9147 106.479 89.7L108.369 88.776C108.462 88.7853 108.593 88.8367 108.761 88.93C108.938 89.0233 109.111 89.126 109.279 89.238C109.456 89.3407 109.587 89.4293 109.671 89.504L109.615 90.61C109.998 90.078 110.385 89.6393 110.777 89.294C111.169 88.9487 111.51 88.776 111.799 88.776ZM120.218 94.194C120.302 94.306 120.386 94.4647 120.47 94.67C120.554 94.8753 120.605 95.0853 120.624 95.3L118.734 96.224C118.51 96.1587 118.267 96.0513 118.006 95.902C117.754 95.7527 117.562 95.6173 117.432 95.496L117.488 94.474C117.021 94.9873 116.55 95.398 116.074 95.706C115.598 96.014 115.182 96.1867 114.828 96.224C114.688 96.1493 114.515 96.0187 114.31 95.832C114.114 95.636 113.927 95.4213 113.75 95.188C113.582 94.9453 113.47 94.7167 113.414 94.502L113.708 90.638C113.848 90.3393 114.048 90.0407 114.31 89.742C114.571 89.434 114.832 89.1867 115.094 89C115.766 88.8787 116.419 88.8087 117.054 88.79C117.688 88.762 118.388 88.8693 119.154 89.112C119.256 89.224 119.35 89.3593 119.434 89.518C119.518 89.6767 119.588 89.8307 119.644 89.98C119.709 90.12 119.746 90.2273 119.756 90.302C119.662 90.7127 119.536 91.114 119.378 91.506C119.228 91.898 119.046 92.2713 118.832 92.626L119 94.502L120.218 94.194ZM115.346 94.516C115.682 94.3947 116.05 94.1333 116.452 93.732C116.862 93.3307 117.236 92.8547 117.572 92.304L117.628 90.19C117.245 90.1807 116.876 90.1993 116.522 90.246C116.167 90.2927 115.831 90.3627 115.514 90.456C115.346 90.9227 115.224 91.3987 115.15 91.884C115.084 92.36 115.052 92.8033 115.052 93.214C115.061 93.6153 115.094 93.9373 115.15 94.18C115.206 94.4227 115.271 94.5347 115.346 94.516Z" fill="#946521"/>
<path d="M164.456 90.656L164.384 93.416L164.392 96.016L163.928 96.128C163.789 96.0587 163.648 95.9653 163.504 95.848C163.36 95.7253 163.243 95.5787 163.152 95.408L163.544 93.312L163.488 91.568L162.544 92.056C162.459 91.992 162.373 91.8987 162.288 91.776C162.203 91.648 162.155 91.5227 162.144 91.4L163.68 90.24C163.739 90.2507 163.819 90.28 163.92 90.328C164.027 90.376 164.131 90.4293 164.232 90.488C164.333 90.5467 164.408 90.6027 164.456 90.656ZM168.953 92.528C168.879 92.64 168.796 92.7493 168.705 92.856C168.615 92.9573 168.516 93.0533 168.409 93.144C168.633 93.288 168.783 93.456 168.857 93.648C168.932 93.8347 168.961 94.056 168.945 94.312C168.929 94.568 168.895 94.8693 168.841 95.216C168.729 95.3547 168.593 95.488 168.433 95.616C168.273 95.744 168.097 95.872 167.905 96H166.097C165.74 95.7387 165.463 95.448 165.265 95.128C165.276 94.728 165.292 94.4053 165.313 94.16C165.34 93.9147 165.396 93.7173 165.481 93.568C165.572 93.4187 165.716 93.296 165.913 93.2C165.812 93.1093 165.716 93.0107 165.625 92.904C165.54 92.7973 165.457 92.6827 165.377 92.56L165.409 91.264C165.532 91.1093 165.665 90.952 165.809 90.792C165.959 90.6267 166.084 90.5067 166.185 90.432C166.543 90.32 166.86 90.2587 167.137 90.248C167.415 90.2373 167.724 90.264 168.065 90.328C168.279 90.4613 168.463 90.6133 168.617 90.784C168.772 90.9547 168.905 91.1333 169.017 91.32L168.953 92.528ZM167.977 91.2C167.748 91.104 167.492 91.064 167.209 91.08C166.927 91.0907 166.676 91.1467 166.457 91.248C166.415 91.376 166.38 91.528 166.353 91.704C166.327 91.88 166.313 92.064 166.313 92.256C166.319 92.4427 166.345 92.6213 166.393 92.792L167.873 92.736C167.948 92.5867 167.996 92.4187 168.017 92.232C168.044 92.04 168.052 91.8533 168.041 91.672C168.031 91.4907 168.009 91.3333 167.977 91.2ZM167.913 95.064C167.988 94.7333 168.015 94.424 167.993 94.136C167.977 93.848 167.889 93.6267 167.729 93.472L166.705 93.488C166.545 93.5467 166.431 93.656 166.361 93.816C166.297 93.9707 166.26 94.168 166.249 94.408C166.239 94.6427 166.239 94.912 166.249 95.216L167.913 95.064ZM174.402 90.28C174.546 90.36 174.679 90.4613 174.802 90.584C174.93 90.7067 175.042 90.8293 175.138 90.952C175.234 91.0747 175.306 91.1813 175.354 91.272L175.218 95.136C175.17 95.232 175.087 95.336 174.97 95.448C174.858 95.56 174.73 95.6667 174.586 95.768C174.442 95.864 174.303 95.944 174.17 96.008C174.036 96.0773 173.927 96.1173 173.842 96.128L172.106 95.888L171.706 96.128C171.482 96.048 171.308 95.928 171.186 95.768L171.498 93.312L171.402 90.4L171.634 90.24C171.687 90.2507 171.759 90.2773 171.85 90.32C171.946 90.3573 172.039 90.4027 172.13 90.456C172.226 90.5093 172.303 90.56 172.362 90.608C172.58 90.496 172.815 90.4107 173.066 90.352C173.316 90.2933 173.559 90.2587 173.794 90.248C174.028 90.232 174.231 90.2427 174.402 90.28ZM172.322 95.184L174.162 94.968C174.22 94.7067 174.268 94.408 174.306 94.072C174.348 93.736 174.375 93.392 174.386 93.04C174.402 92.688 174.399 92.3493 174.378 92.024C174.356 91.6987 174.316 91.4187 174.258 91.184C174.06 91.1573 173.847 91.1547 173.618 91.176C173.394 91.192 173.172 91.2267 172.954 91.28C172.74 91.328 172.551 91.392 172.386 91.472L172.322 93.416V95.184ZM179.832 94.832L180.032 95.232C179.958 95.392 179.854 95.552 179.72 95.712C179.587 95.8667 179.448 96.0053 179.304 96.128L176.768 95.92L176.424 96.128C176.2 96.048 176.027 95.928 175.904 95.768L176.216 93.312L176.12 90.4L176.352 90.24C176.411 90.2507 176.494 90.2827 176.6 90.336C176.712 90.384 176.816 90.4373 176.912 90.496L179.264 90.24C179.414 90.3307 179.544 90.4347 179.656 90.552C179.774 90.6693 179.883 90.8 179.984 90.944L179.872 91.376L177.104 91.304L177.056 92.848L178.856 92.584C179.027 92.6747 179.168 92.768 179.28 92.864C179.398 92.96 179.496 93.0773 179.576 93.216L179.456 93.68L177.04 93.6V95.168L179.832 94.832ZM181.494 95.16L183.958 94.664L184.158 95.072C184.072 95.2373 183.952 95.4053 183.798 95.576C183.643 95.7413 183.494 95.8827 183.35 96H181.782C181.696 95.9893 181.582 95.9467 181.438 95.872C181.299 95.7973 181.155 95.7067 181.006 95.6C180.856 95.488 180.726 95.3733 180.614 95.256C180.502 95.1333 180.43 95.024 180.398 94.928L180.614 91.344C180.667 91.2533 180.742 91.1467 180.838 91.024C180.939 90.896 181.048 90.7733 181.166 90.656C181.283 90.5333 181.39 90.432 181.486 90.352C181.875 90.2773 182.264 90.24 182.654 90.24C183.048 90.24 183.44 90.2987 183.83 90.416C183.904 90.4853 183.979 90.576 184.054 90.688C184.128 90.7947 184.187 90.8907 184.23 90.976L184.118 92.152C184.027 92.184 183.907 92.2027 183.758 92.208C183.608 92.208 183.48 92.1973 183.374 92.176L183.262 91.176C183 91.1547 182.731 91.152 182.454 91.168C182.182 91.1787 181.923 91.2213 181.678 91.296C181.598 91.552 181.531 91.8533 181.478 92.2C181.43 92.5467 181.398 92.9067 181.382 93.28C181.366 93.648 181.366 93.9973 181.382 94.328C181.403 94.6587 181.44 94.936 181.494 95.16Z" fill="#946521"/>
<path d="M94.368 42.968L94.152 51.248L94.176 59.048L92.784 59.384C92.368 59.176 91.944 58.896 91.512 58.544C91.08 58.176 90.728 57.736 90.456 57.224L91.632 50.936L91.464 45.704L88.632 47.168C88.376 46.976 88.12 46.696 87.864 46.328C87.608 45.944 87.464 45.568 87.432 45.2L92.04 41.72C92.216 41.752 92.456 41.84 92.76 41.984C93.08 42.128 93.392 42.288 93.696 42.464C94 42.64 94.224 42.808 94.368 42.968ZM106.3 42.056C106.604 42.28 106.924 42.56 107.26 42.896C107.612 43.232 107.94 43.576 108.244 43.928C108.548 44.28 108.78 44.616 108.94 44.936L108.532 55.976C108.308 56.296 108.02 56.648 107.668 57.032C107.316 57.416 106.94 57.784 106.54 58.136C106.14 58.472 105.756 58.76 105.388 59H100.924C100.668 58.968 100.332 58.84 99.9159 58.616C99.4999 58.392 99.0679 58.12 98.6199 57.8C98.1719 57.464 97.7799 57.12 97.4439 56.768C97.1079 56.4 96.8919 56.072 96.7959 55.784L97.4439 45.056C97.6039 44.784 97.8279 44.464 98.1159 44.096C98.4199 43.712 98.7479 43.344 99.0999 42.992C99.4519 42.624 99.7719 42.32 100.06 42.08C101.228 41.856 102.324 41.744 103.348 41.744C104.388 41.728 105.372 41.832 106.3 42.056ZM105.724 44.84C104.94 44.664 104.084 44.584 103.156 44.6C102.244 44.616 101.396 44.744 100.612 44.984C100.356 45.848 100.148 46.872 99.9879 48.056C99.8439 49.224 99.7559 50.4 99.7239 51.584L105.964 46.376C105.932 46.104 105.892 45.84 105.844 45.584C105.812 45.312 105.772 45.064 105.724 44.84ZM100.084 56.528L105.508 55.64C105.716 54.744 105.868 53.704 105.964 52.52C106.076 51.32 106.124 50.128 106.108 48.944L99.7719 54.248C99.8039 54.696 99.8439 55.112 99.8919 55.496C99.9559 55.864 100.02 56.208 100.084 56.528ZM119.636 42.056C119.94 42.28 120.26 42.56 120.596 42.896C120.948 43.232 121.276 43.576 121.58 43.928C121.884 44.28 122.116 44.616 122.276 44.936L121.868 55.976C121.644 56.296 121.356 56.648 121.004 57.032C120.652 57.416 120.276 57.784 119.876 58.136C119.476 58.472 119.092 58.76 118.724 59H114.26C114.004 58.968 113.668 58.84 113.252 58.616C112.836 58.392 112.404 58.12 111.956 57.8C111.508 57.464 111.116 57.12 110.78 56.768C110.444 56.4 110.228 56.072 110.132 55.784L110.78 45.056C110.94 44.784 111.164 44.464 111.452 44.096C111.756 43.712 112.084 43.344 112.436 42.992C112.788 42.624 113.108 42.32 113.396 42.08C114.564 41.856 115.66 41.744 116.684 41.744C117.724 41.728 118.708 41.832 119.636 42.056ZM119.06 44.84C118.276 44.664 117.42 44.584 116.492 44.6C115.58 44.616 114.732 44.744 113.948 44.984C113.692 45.848 113.484 46.872 113.324 48.056C113.18 49.224 113.092 50.4 113.06 51.584L119.3 46.376C119.268 46.104 119.228 45.84 119.18 45.584C119.148 45.312 119.108 45.064 119.06 44.84ZM113.42 56.528L118.844 55.64C119.052 54.744 119.204 53.704 119.3 52.52C119.412 51.32 119.46 50.128 119.444 48.944L113.108 54.248C113.14 54.696 113.18 55.112 113.228 55.496C113.292 55.864 113.356 56.208 113.42 56.528ZM132.095 45.656C132.255 46.168 132.575 46.632 133.055 47.048C133.551 47.464 134.119 47.88 134.759 48.296C135.415 48.712 136.095 49.168 136.799 49.664C137.503 50.144 138.167 50.712 138.791 51.368C139.415 52.008 139.927 52.768 140.327 53.648C140.247 54.208 140.031 54.8 139.679 55.424C139.343 56.032 138.935 56.592 138.455 57.104C137.975 57.616 137.479 58 136.967 58.256C136.759 58.288 136.535 58.32 136.295 58.352C136.055 58.368 135.799 58.376 135.527 58.376L135.431 61.496C134.567 61.736 133.703 61.736 132.839 61.496L133.103 58.256C132.287 58.144 131.463 57.96 130.631 57.704C130.423 57.496 130.175 57.224 129.887 56.888C129.599 56.536 129.343 56.192 129.119 55.856L129.479 52.736C129.767 52.656 130.103 52.6 130.487 52.568C130.887 52.536 131.239 52.56 131.543 52.64L131.759 55.472C132.351 55.568 133.007 55.624 133.727 55.64C134.463 55.64 135.183 55.584 135.887 55.472C136.591 55.36 137.199 55.184 137.711 54.944C137.407 54.352 136.975 53.816 136.415 53.336C135.855 52.84 135.239 52.368 134.567 51.92C133.895 51.472 133.223 51.016 132.551 50.552C131.879 50.088 131.271 49.592 130.727 49.064C130.183 48.52 129.775 47.92 129.503 47.264C129.599 46.688 129.783 46.104 130.055 45.512C130.327 44.904 130.639 44.36 130.991 43.88C131.359 43.384 131.719 43.016 132.071 42.776C132.775 42.584 133.463 42.464 134.135 42.416L134.231 39.224C135.031 39 135.855 39.008 136.703 39.248L136.415 42.44C136.767 42.472 137.119 42.52 137.471 42.584C137.839 42.632 138.207 42.696 138.575 42.776C138.719 42.856 138.887 43.008 139.079 43.232C139.287 43.44 139.479 43.656 139.655 43.88C139.847 44.104 139.983 44.288 140.063 44.432L139.727 47.384C139.439 47.496 139.111 47.552 138.743 47.552C138.375 47.552 138.023 47.512 137.687 47.432L137.495 45.08C137.015 45 136.447 44.96 135.791 44.96C135.151 44.96 134.503 45.016 133.847 45.128C133.207 45.224 132.623 45.4 132.095 45.656Z" fill="#946521"/>
</svg>
