<svg width="63" height="68" viewBox="0 0 63 68" fill="none" xmlns="http://www.w3.org/2000/svg">
<path d="M42.984 44.744C43.3253 45.256 43.688 45.9813 44.072 46.92C44.4987 47.8587 44.7547 48.8187 44.84 49.8L36.2 54.024C34.6213 53.2987 33.2347 52.424 32.04 51.4C30.8453 50.376 29.9493 49.3093 29.352 48.2L30.696 27.208L31.208 8.712L26.216 9.992C25.9173 9.48 25.5547 8.776 25.128 7.88C24.7013 6.94133 24.4453 5.98133 24.36 5L33 0.775997C33.4267 0.818663 34.088 1.032 34.984 1.416C35.9227 1.8 36.84 2.248 37.736 2.76C38.632 3.272 39.272 3.72 39.656 4.104L36.904 27.784L37.416 46.216L42.984 44.744ZM48.4115 44.744C48.7955 45.256 49.1795 45.9813 49.5635 46.92C49.9475 47.8587 50.1822 48.8187 50.2675 49.8L41.6275 54.024C40.6035 53.7253 39.4942 53.2347 38.2995 52.552C37.1475 51.8693 36.2728 51.2507 35.6755 50.696L35.9315 46.024C33.7982 48.3707 31.6435 50.248 29.4675 51.656C27.2915 53.064 25.3928 53.8533 23.7715 54.024C23.1315 53.6827 22.3422 53.0853 21.4035 52.232C20.5075 51.336 19.6542 50.3547 18.8435 49.288C18.0755 48.1787 17.5635 47.1333 17.3075 46.152L18.6515 28.488C19.2915 27.1227 20.2088 25.7573 21.4035 24.392C22.5982 22.984 23.7928 21.8533 24.9875 21C28.0595 20.4453 31.0462 20.1253 33.9475 20.04C36.8488 19.912 40.0488 20.4027 43.5475 21.512C44.0168 22.024 44.4435 22.6427 44.8275 23.368C45.2115 24.0933 45.5315 24.7973 45.7875 25.48C46.0862 26.12 46.2568 26.6107 46.2995 26.952C45.8728 28.8293 45.2968 30.664 44.5715 32.456C43.8888 34.248 43.0568 35.9547 42.0755 37.576L42.8435 46.152L48.4115 44.744ZM26.1395 46.216C27.6755 45.6613 29.3608 44.4667 31.1955 42.632C33.0728 40.7973 34.7795 38.6213 36.3155 36.104L36.5715 26.44C34.8222 26.3973 33.1368 26.4827 31.5155 26.696C29.8942 26.9093 28.3582 27.2293 26.9075 27.656C26.1395 29.7893 25.5848 31.9653 25.2435 34.184C24.9448 36.36 24.7955 38.3867 24.7955 40.264C24.8382 42.0987 24.9875 43.5707 25.2435 44.68C25.4995 45.7893 25.7982 46.3013 26.1395 46.216ZM31.395 19.976C32.163 20.3173 32.9737 20.872 33.827 21.64C34.6803 22.408 35.4697 23.3253 36.195 24.392C36.9203 25.416 37.4323 26.4827 37.731 27.592L36.451 45.512C35.811 46.8773 34.8937 48.264 33.699 49.672C32.5043 51.0373 31.3097 52.1467 30.115 53C28.2377 53.3413 26.5737 53.5973 25.123 53.768C23.6723 53.9387 22.2857 54.0027 20.963 53.96C19.6403 53.96 18.1897 53.8533 16.611 53.64V66.184L14.691 67.72C14.2643 67.6773 13.6243 67.528 12.771 67.272C11.9603 67.016 11.1497 66.6747 10.339 66.248C9.571 65.864 8.995 65.5013 8.611 65.16L10.787 36.616L10.211 27.848L4.771 29.256C4.387 28.744 4.003 28.0187 3.619 27.08C3.235 26.1413 3.00033 25.1813 2.915 24.2L11.555 19.976C11.9817 20.0187 12.579 20.2533 13.347 20.68C14.1577 21.1067 14.947 21.576 15.715 22.088C16.5257 22.5573 17.123 22.9627 17.507 23.304L17.187 29.64C18.8937 27.6773 20.6217 25.9707 22.371 24.52C24.1203 23.0693 25.7843 21.96 27.363 21.192C28.9417 20.3813 30.2857 19.976 31.395 19.976ZM28.515 46.28C29.1977 43.6773 29.667 41.1387 29.923 38.664C30.179 36.1893 30.2643 33.9707 30.179 32.008C30.1363 30.0027 29.987 28.424 29.731 27.272C28.4937 27.656 27.0857 28.552 25.507 29.96C23.9283 31.3253 22.3497 33.0107 20.771 35.016C19.235 37.0213 17.8697 39.1547 16.675 41.416V47.432C18.723 47.6453 20.7497 47.6453 22.755 47.432C24.7603 47.2187 26.6803 46.8347 28.515 46.28ZM34.2325 19.976C35.2138 20.488 36.1525 21.448 37.0485 22.856C37.9872 24.2213 38.6485 25.6507 39.0325 27.144L38.4565 35.144C37.7312 35.656 36.8138 36.04 35.7045 36.296C34.5952 36.5093 33.5712 36.6373 32.6325 36.68L31.0965 35.208C31.3098 33.6293 31.4378 32.2427 31.4805 31.048C31.5658 29.8107 31.5232 28.7227 31.3525 27.784C30.0298 28.7653 28.7925 30.1947 27.6405 32.072C26.5312 33.9067 25.5072 35.9547 24.5685 38.216L24.7605 53C23.8218 53.256 22.7338 53.384 21.4965 53.384C20.2592 53.384 19.1498 53.256 18.1685 53C16.8458 51.592 15.7578 49.992 14.9045 48.2C15.2032 46.792 15.6298 45.2987 16.1845 43.72C16.7392 42.0987 17.3792 40.4987 18.1045 38.92V36.616L17.3365 27.784L11.7685 29.192C11.4698 28.68 11.1072 27.976 10.6805 27.08C10.2538 26.1413 9.99783 25.1813 9.9125 24.2L18.5525 19.976C18.9792 20.0187 19.5765 20.2533 20.3445 20.68C21.1552 21.1067 21.9445 21.576 22.7125 22.088C23.5232 22.5573 24.1205 22.9627 24.5045 23.304L24.2485 28.36C25.9978 25.928 27.7685 23.9227 29.5605 22.344C31.3525 20.7653 32.9098 19.976 34.2325 19.976ZM22.8065 16.328C20.5878 15.1333 18.5825 13.5547 16.7905 11.592C16.8332 10.9093 17.1105 10.1413 17.6225 9.288C18.1772 8.392 18.8172 7.58133 19.5425 6.856C20.3105 6.088 21.0358 5.61867 21.7185 5.448C22.4012 5.448 23.1692 5.72533 24.0225 6.28C24.8758 6.792 25.6652 7.432 26.3905 8.2C27.1158 8.92533 27.5425 9.62933 27.6705 10.312C27.6278 11.0373 27.3292 11.848 26.7745 12.744C26.2198 13.5973 25.5798 14.3653 24.8545 15.048C24.1292 15.688 23.4465 16.1147 22.8065 16.328ZM29.8465 44.424C30.1452 44.936 30.5078 45.7253 30.9345 46.792C31.3612 47.816 31.6172 48.8187 31.7025 49.8L23.0625 54.024C19.8198 52.5307 17.6012 50.6107 16.4065 48.264L17.7505 28.168L13.0785 29.576C12.7798 29.064 12.4172 28.296 11.9905 27.272C11.5638 26.2053 11.3078 25.1813 11.2225 24.2L19.8625 19.976C20.2892 20.0187 20.9078 20.2533 21.7185 20.68C22.5292 21.1067 23.3185 21.576 24.0865 22.088C24.8972 22.6 25.5158 23.0267 25.9425 23.368L24.1505 37.448V46.152L29.8465 44.424ZM54.2895 44.744C54.6735 45.256 55.0575 45.9813 55.4415 46.92C55.8255 47.8587 56.0602 48.8187 56.1455 49.8L47.5055 54.024C46.3962 53.4693 45.2228 52.744 43.9855 51.848C42.7482 50.952 41.7668 49.9707 41.0415 48.904C41.8095 46.216 42.3215 43.5067 42.5775 40.776C42.8335 38.0453 42.8975 35.5067 42.7695 33.16C42.6842 30.7707 42.4495 28.808 42.0655 27.272C40.6148 27.8693 39.0788 29.0853 37.4575 30.92C35.8362 32.7547 34.3428 34.9307 32.9775 37.448L32.5935 53C31.6548 53.256 30.5668 53.384 29.3295 53.384C28.0922 53.384 26.9828 53.256 26.0015 53C24.6788 51.592 23.5908 49.992 22.7375 48.2C23.3775 45 24.3375 41.992 25.6175 39.176C25.7882 36.7867 25.8095 34.5467 25.6815 32.456C25.5535 30.3653 25.3188 28.6373 24.9775 27.272C23.2708 27.912 21.5642 29.2133 19.8575 31.176C18.1508 33.096 16.6148 35.336 15.2495 37.896L14.8655 53C13.9268 53.256 12.8388 53.384 11.6015 53.384C10.3642 53.384 9.25483 53.256 8.2735 53C6.95083 51.592 5.86283 49.992 5.0095 48.2C5.3935 46.1947 5.9055 44.2747 6.5455 42.44C7.22816 40.6053 7.99616 38.8347 8.8495 37.128V36.616L8.0815 27.784L2.5135 29.192C2.21483 28.68 1.85216 27.976 1.4255 27.08C0.99883 26.1413 0.74283 25.1813 0.657497 24.2L9.2975 19.976C9.72416 20.0187 10.3215 20.2533 11.0895 20.68C11.9002 21.1067 12.6895 21.576 13.4575 22.088C14.2682 22.5573 14.8655 22.9627 15.2495 23.304L14.9935 27.784C17.1268 25.352 19.1962 23.4533 21.2015 22.088C23.2495 20.68 24.9348 19.976 26.2575 19.976C26.9828 20.3173 27.7508 20.9787 28.5615 21.96C29.4148 22.9413 30.1828 24.0293 30.8655 25.224C31.5482 26.376 31.9962 27.464 32.2095 28.488C34.4708 25.8427 36.7108 23.7733 38.9295 22.28C41.1908 20.744 43.0895 19.976 44.6255 19.976C45.2655 20.3173 45.9695 20.9147 46.7375 21.768C47.5055 22.6213 48.2095 23.5813 48.8495 24.648C49.4895 25.672 49.9375 26.696 50.1935 27.72L49.1055 46.088L54.2895 44.744ZM53.437 42.952C53.7357 43.336 54.0557 44.0827 54.397 45.192C54.781 46.3013 54.9517 47.2827 54.909 48.136C53.0743 48.904 51.1543 49.672 49.149 50.44C47.1437 51.1653 45.2663 51.848 43.517 52.488C41.8103 53.128 40.4023 53.64 39.293 54.024C37.9703 53.6827 36.5837 53.1493 35.133 52.424C33.6823 51.6987 32.3597 50.8453 31.165 49.864C29.9703 48.84 29.117 47.816 28.605 46.792L29.501 27.208C30.0983 26.1413 30.9303 25.0747 31.997 24.008C33.1063 22.8987 34.1943 21.896 35.261 21C37.7357 20.4453 40.1463 20.104 42.493 19.976C44.8823 19.848 47.165 19.9547 49.341 20.296C49.725 20.5093 50.237 20.9787 50.877 21.704C51.5597 22.3867 52.221 23.0907 52.861 23.816C53.501 24.5413 53.9277 25.0747 54.141 25.416L53.885 34.952C52.7757 35.7627 51.2823 36.616 49.405 37.512C47.5277 38.408 45.4583 39.2827 43.197 40.136C40.9357 40.9467 38.6743 41.672 36.413 42.312C36.4557 43.1227 36.5197 43.912 36.605 44.68C36.6903 45.448 36.797 46.1947 36.925 46.92L53.437 42.952ZM47.037 26.888C45.501 26.6747 44.0077 26.6107 42.557 26.696C41.1063 26.7813 39.5917 27.0373 38.013 27.464C37.5863 28.7867 37.245 30.216 36.989 31.752C36.733 33.288 36.541 34.8453 36.413 36.424C38.2477 35.8267 40.1677 35.0587 42.173 34.12C44.221 33.1387 46.077 32.1147 47.741 31.048L47.037 26.888ZM51.8475 19.976C52.8288 20.488 53.7675 21.448 54.6635 22.856C55.6022 24.2213 56.2635 25.6507 56.6475 27.144L56.0715 35.144C55.3462 35.656 54.4288 36.04 53.3195 36.296C52.2102 36.5093 51.1862 36.6373 50.2475 36.68L48.7115 35.208C48.9248 33.6293 49.0528 32.2427 49.0955 31.048C49.1808 29.8107 49.1382 28.7227 48.9675 27.784C47.6448 28.7653 46.4075 30.1947 45.2555 32.072C44.1462 33.9067 43.1222 35.9547 42.1835 38.216L42.3755 53C41.4368 53.256 40.3488 53.384 39.1115 53.384C37.8742 53.384 36.7648 53.256 35.7835 53C34.4608 51.592 33.3728 49.992 32.5195 48.2C32.8182 46.792 33.2448 45.2987 33.7995 43.72C34.3542 42.0987 34.9942 40.4987 35.7195 38.92V36.616L34.9515 27.784L29.3835 29.192C29.0848 28.68 28.7222 27.976 28.2955 27.08C27.8688 26.1413 27.6128 25.1813 27.5275 24.2L36.1675 19.976C36.5942 20.0187 37.1915 20.2533 37.9595 20.68C38.7702 21.1067 39.5595 21.576 40.3275 22.088C41.1382 22.5573 41.7355 22.9627 42.1195 23.304L41.8635 28.36C43.6128 25.928 45.3835 23.9227 47.1755 22.344C48.9675 20.7653 50.5248 19.976 51.8475 19.976ZM60.8915 44.744C61.2755 45.256 61.6595 45.9813 62.0435 46.92C62.4275 47.8587 62.6622 48.8187 62.7475 49.8L54.1075 54.024C53.0835 53.7253 51.9742 53.2347 50.7795 52.552C49.6275 51.8693 48.7528 51.2507 48.1555 50.696L48.4115 46.024C46.2782 48.3707 44.1235 50.248 41.9475 51.656C39.7715 53.064 37.8728 53.8533 36.2515 54.024C35.6115 53.6827 34.8222 53.0853 33.8835 52.232C32.9875 51.336 32.1342 50.3547 31.3235 49.288C30.5555 48.1787 30.0435 47.1333 29.7875 46.152L31.1315 28.488C31.7715 27.1227 32.6888 25.7573 33.8835 24.392C35.0782 22.984 36.2728 21.8533 37.4675 21C40.5395 20.4453 43.5262 20.1253 46.4275 20.04C49.3288 19.912 52.5288 20.4027 56.0275 21.512C56.4968 22.024 56.9235 22.6427 57.3075 23.368C57.6915 24.0933 58.0115 24.7973 58.2675 25.48C58.5662 26.12 58.7368 26.6107 58.7795 26.952C58.3528 28.8293 57.7768 30.664 57.0515 32.456C56.3688 34.248 55.5368 35.9547 54.5555 37.576L55.3235 46.152L60.8915 44.744ZM38.6195 46.216C40.1555 45.6613 41.8408 44.4667 43.6755 42.632C45.5528 40.7973 47.2595 38.6213 48.7955 36.104L49.0515 26.44C47.3022 26.3973 45.6168 26.4827 43.9955 26.696C42.3742 26.9093 40.8382 27.2293 39.3875 27.656C38.6195 29.7893 38.0648 31.9653 37.7235 34.184C37.4248 36.36 37.2755 38.3867 37.2755 40.264C37.3182 42.0987 37.4675 43.5707 37.7235 44.68C37.9795 45.7893 38.2782 46.3013 38.6195 46.216Z" fill="#946521"/>
</svg>
